<svg width="56" height="60" viewBox="0 0 56 60" fill="none"
    xmlns="http://www.w3.org/2000/svg">
    <g clip-path="url(#clip0_692_4363)">
        <path d="M28 38C32.1237 38 35.4667 34.4183 35.4667 30C35.4667 25.5817 32.1237 22 28 22C23.8763 22 20.5333 25.5817 20.5333 30C20.5333 34.4183 23.8763 38 28 38Z" fill="#8D7F7F"/>
        <path d="M21 5L16.73 10H9.33335C6.76669 10 4.66669 12.25 4.66669 15V45C4.66669 47.75 6.76669 50 9.33335 50H46.6667C49.2334 50 51.3334 47.75 51.3334 45V15C51.3334 12.25 49.2334 10 46.6667 10H39.27L35 5H21ZM28 42.5C21.56 42.5 16.3334 36.9 16.3334 30C16.3334 23.1 21.56 17.5 28 17.5C34.44 17.5 39.6667 23.1 39.6667 30C39.6667 36.9 34.44 42.5 28 42.5Z" fill="#B8ADAD"/>
    </g>
    <defs>
        <clipPath id="clip0_692_4363">
            <rect width="56" height="60" fill="white"/>
        </clipPath>
    </defs>
</svg>
