<svg viewBox="0 0 24 24" fill="none"
    xmlns="http://www.w3.org/2000/svg">
    <path d="M12 16C13.6569 16 15 14.6569 15 13C15 11.3431 13.6569 10 12 10C10.3431 10 9 11.3431 9 13C9 14.6569 10.3431 16 12 16Z" stroke="black" stroke-width="2" stroke-linecap="round" stroke-linejoin="round"/>
    <path d="M20 7H4C3.44771 7 3 7.44772 3 8V18C3 18.5523 3.44771 19 4 19H20C20.5523 19 21 18.5523 21 18V8C21 7.44772 20.5523 7 20 7Z" stroke="black" stroke-width="2" stroke-linecap="round" stroke-linejoin="round"/>
    <path d="M14.2792 4H9.72076C9.29033 4 8.90819 4.27543 8.77208 4.68377L8.43874 5.68377C8.2229 6.3313 8.70487 7 9.38743 7H14.6126C15.2951 7 15.7771 6.3313 15.5613 5.68377L15.2279 4.68377C15.0918 4.27543 14.7097 4 14.2792 4Z" stroke="black" stroke-width="2" stroke-linecap="round" stroke-linejoin="round"/>
</svg>
