<svg width="50" height="50" viewBox="0 0 50 50" fill="none"
    xmlns="http://www.w3.org/2000/svg">
    <path d="M25 0C11.1842 0 0 11.1842 0 25C0 38.8158 11.1842 50 25 50C38.8158 50 50 38.8158 50 25C50 11.1842 38.8158 0 25 0ZM25 47.3684C12.6316 47.3684 2.63158 37.3684 2.63158 25C2.63158 12.6316 12.6316 2.63158 25 2.63158C37.3684 2.63158 47.3684 12.6316 47.3684 25C47.3684 37.3684 37.3684 47.3684 25 47.3684ZM26.8421 25L35.1316 16.7105C35.6579 16.1842 35.6579 15.3947 35.1316 14.8684C34.6053 14.3421 33.8158 14.3421 33.2895 14.8684L25 23.1579L16.7105 14.8684C16.1842 14.3421 15.3947 14.3421 14.8684 14.8684C14.3421 15.3947 14.3421 16.1842 14.8684 16.7105L23.1579 25L14.8684 33.2895C14.3421 33.8158 14.3421 34.6053 14.8684 35.1316C15.3947 35.6579 16.1842 35.6579 16.7105 35.1316L25 26.8421L33.2895 35.1316C33.8158 35.6579 34.6053 35.6579 35.1316 35.1316C35.6579 34.6053 35.6579 33.8158 35.1316 33.2895L26.8421 25Z" fill="#17202A"/>
</svg>
