<svg width="24" height="22" viewBox="0 0 24 22" fill="none"
    xmlns="http://www.w3.org/2000/svg">
    <path d="M17.25 16.5C17.0511 16.5 16.8603 16.5966 16.7197 16.7685C16.579 16.9404 16.5 17.1736 16.5 17.4167C16.5 17.6598 16.579 17.8929 16.7197 18.0648C16.8603 18.2368 17.0511 18.3333 17.25 18.3333H20.25C20.4489 18.3333 20.6397 18.2368 20.7803 18.0648C20.921 17.8929 21 17.6598 21 17.4167C21 17.1736 20.921 16.9404 20.7803 16.7685C20.6397 16.5966 20.4489 16.5 20.25 16.5H17.25ZM0 4.58333C0 3.36776 0.395088 2.20197 1.09835 1.34243C1.80161 0.482886 2.75544 0 3.75 0H20.25C21.2446 0 22.1984 0.482886 22.9016 1.34243C23.6049 2.20197 24 3.36776 24 4.58333V17.4167C24 18.6322 23.6049 19.798 22.9016 20.6576C22.1984 21.5171 21.2446 22 20.25 22H3.75C2.75544 22 1.80161 21.5171 1.09835 20.6576C0.395088 19.798 0 18.6322 0 17.4167V4.58333ZM1.5 17.4167C1.5 18.146 1.73705 18.8455 2.15901 19.3612C2.58097 19.8769 3.15326 20.1667 3.75 20.1667H20.25C20.8467 20.1667 21.419 19.8769 21.841 19.3612C22.2629 18.8455 22.5 18.146 22.5 17.4167V9.16667H1.5V17.4167ZM22.5 4.58333C22.5 3.85399 22.2629 3.15451 21.841 2.63879C21.419 2.12306 20.8467 1.83333 20.25 1.83333H3.75C3.15326 1.83333 2.58097 2.12306 2.15901 2.63879C1.73705 3.15451 1.5 3.85399 1.5 4.58333V7.33333H22.5V4.58333Z" fill="currentColor"/>
</svg>
