<svg viewBox="0 0 28 28" fill="none"
    xmlns="http://www.w3.org/2000/svg">
    <path d="M19.8333 24.4999C21.122 24.4999 22.1667 23.4552 22.1667 22.1666C22.1667 20.8779 21.122 19.8333 19.8333 19.8333C18.5447 19.8333 17.5 20.8779 17.5 22.1666C17.5 23.4552 18.5447 24.4999 19.8333 24.4999Z" stroke="currentColor" stroke-width="2.33333" stroke-linecap="round" stroke-linejoin="round"/>
    <path d="M9.33333 24.4999C10.622 24.4999 11.6667 23.4552 11.6667 22.1666C11.6667 20.8779 10.622 19.8333 9.33333 19.8333C8.04467 19.8333 7 20.8779 7 22.1666C7 23.4552 8.04467 24.4999 9.33333 24.4999Z" stroke="currentColor" stroke-width="2.33333" stroke-linecap="round" stroke-linejoin="round"/>
    <path d="M3.5 3.5H4.89018C5.44031 3.5 5.91568 3.8843 6.03095 4.42222L9.13572 18.9111C9.25098 19.449 9.72636 19.8333 10.2765 19.8333H19.8333" stroke="currentColor" stroke-width="2.33333" stroke-linecap="round" stroke-linejoin="round"/>
    <path d="M7 7H22.9492C23.7256 7 24.2854 7.74409 24.0702 8.49002L22.051 15.49C21.9069 15.9895 21.4498 16.3333 20.93 16.3333H9.01923" stroke="currentColor" stroke-width="2.33333" stroke-linecap="round" stroke-linejoin="round"/>
</svg>
