<svg viewBox="0 0 24 24" fill="none"
    xmlns="http://www.w3.org/2000/svg">
    <path d="M18.6069 8.32114C18.7678 8.16019 18.8582 7.9419 18.8582 7.71429C18.8582 7.48667 18.7678 7.26838 18.6069 7.10743C18.4459 6.94648 18.2276 6.85606 18 6.85606C17.7724 6.85606 17.5541 6.94648 17.3931 7.10743L9.42857 15.0737L6.60686 12.2503C6.44591 12.0893 6.22762 11.9989 6 11.9989C5.77238 11.9989 5.55409 12.0893 5.39314 12.2503C5.23219 12.4112 5.14177 12.6295 5.14177 12.8571C5.14177 13.0848 5.23219 13.3031 5.39314 13.464L8.82171 16.8926C8.90134 16.9724 8.99592 17.0357 9.10006 17.0789C9.20419 17.1221 9.31583 17.1444 9.42857 17.1444C9.54132 17.1444 9.65295 17.1221 9.75709 17.0789C9.86122 17.0357 9.95581 16.9724 10.0354 16.8926L18.6069 8.32114ZM4.59771 0C3.37832 0 2.20888 0.484401 1.34664 1.34664C0.484401 2.20888 0 3.37832 0 4.59771V19.4023C0 21.9429 2.05714 24 4.59771 24H19.4023C21.9429 24 24 21.9429 24 19.4023V4.59771C24 2.05714 21.9429 0 19.4023 0H4.59771ZM1.71429 4.59771C1.71429 3.00514 3.00514 1.71429 4.59771 1.71429H19.4023C20.9949 1.71429 22.2857 3.00514 22.2857 4.59771V19.4023C22.2857 20.9949 20.9949 22.2857 19.4023 22.2857H4.59771C3.83298 22.2857 3.09957 21.9819 2.55882 21.4412C2.01807 20.9004 1.71429 20.167 1.71429 19.4023V4.59771Z" fill="currentColor"/>
</svg>
