<svg viewBox="0 0 12 12" fill="none"
    xmlns="http://www.w3.org/2000/svg">
    <g clip-path="url(#clip0_1138_9966)">
        <path d="M7.84684 10.1726C7.75208 10.2674 7.63957 10.3426 7.51573 10.3939C7.3919 10.4452 7.25918 10.4716 7.12514 10.4716C6.9911 10.4716 6.85837 10.4452 6.73454 10.3939C6.61071 10.3426 6.4982 10.2674 6.40344 10.1726L2.3722 6.14136C2.18082 5.95003 2.07329 5.69051 2.07324 5.4199V2.53216C2.07324 1.96961 2.53064 1.51221 3.09367 1.51221H5.98093C6.25113 1.51221 6.51095 1.61972 6.7024 1.81117L10.7336 5.8424C10.8284 5.93716 10.9036 6.04967 10.9549 6.1735C11.0063 6.29734 11.0327 6.43006 11.0327 6.5641C11.0327 6.69814 11.0063 6.83087 10.9549 6.9547C10.9036 7.07853 10.8284 7.19104 10.7336 7.2858L7.84684 10.1726Z" stroke="black" stroke-width="0.943089" stroke-linecap="round" stroke-linejoin="round"/>
        <path d="M3.72363 3.1626L3.95941 3.39837" stroke="black" stroke-width="0.943089" stroke-linecap="round"/>
    </g>
    <defs>
        <clipPath id="clip0_1138_9966">
            <rect width="11.3171" height="11.3171" fill="white" transform="translate(0.658447 0.0976562)"/>
        </clipPath>
    </defs>
</svg>
