<svg width="12" height="16" viewBox="0 0 12 16" fill="none"
    xmlns="http://www.w3.org/2000/svg">
    <path d="M3.5 2.4V10.8C3.5 11.1713 3.6317 11.5274 3.86612 11.7899C4.10054 12.0525 4.41848 12.2 4.75 12.2H9.75C10.0815 12.2 10.3995 12.0525 10.6339 11.7899C10.8683 11.5274 11 11.1713 11 10.8V4.6694C11 4.48289 10.9667 4.29827 10.9021 4.12637C10.8375 3.95447 10.7428 3.79877 10.6238 3.6684L8.55188 1.399C8.31835 1.14326 8.00473 1.00005 7.67813 1H4.75C4.41848 1 4.10054 1.1475 3.86612 1.41005C3.6317 1.6726 3.5 2.0287 3.5 2.4V2.4Z" stroke="black" stroke-width="2" stroke-linecap="round" stroke-linejoin="round"/>
    <path d="M8.5 12.2V13.6C8.5 13.9713 8.3683 14.3274 8.13388 14.5899C7.89946 14.8525 7.58152 15 7.25 15H2.25C1.91848 15 1.60054 14.8525 1.36612 14.5899C1.1317 14.3274 1 13.9713 1 13.6V5.9C1 5.5287 1.1317 5.1726 1.36612 4.91005C1.60054 4.6475 1.91848 4.5 2.25 4.5H3.5" stroke="black" stroke-width="2" stroke-linecap="round" stroke-linejoin="round"/>
</svg>
