<svg width="18" height="28" viewBox="0 0 18 28" fill="none"
    xmlns="http://www.w3.org/2000/svg">
    <path d="M12.6807 19.1966C12.6807 18.3918 12.3985 17.7539 11.8342 17.2828C11.282 16.8019 10.3372 16.3603 8.99969 15.9579C7.66217 15.5555 6.50869 15.158 5.53926 14.7655C4.56991 14.3631 3.73551 13.9068 3.03609 13.3964C2.34892 12.8762 1.80902 12.2678 1.41636 11.571C1.03597 10.8742 0.845768 10.0448 0.845768 9.08305C0.845768 7.42445 1.50839 6.06518 2.83362 5.00525C4.15885 3.94531 5.91976 3.32702 8.11606 3.15037V1.1777C8.11606 0.527275 8.77529 0 9.58862 0C10.4017 0 11.061 0.527275 11.061 1.1777V3.19453C13.2329 3.43989 14.9325 4.16613 16.1596 5.37329C16.9849 6.17872 17.5328 7.14628 17.8029 8.27592C18.033 9.23794 17.0073 10.0399 15.7826 10.0399H14.8981C13.6735 10.0399 12.7681 9.21815 12.3708 8.2917C12.2213 7.94339 12.018 7.64776 11.7605 7.40483C11.1592 6.81596 10.3494 6.52155 9.33096 6.52155C8.32472 6.52155 7.54553 6.75217 6.99341 7.21344C6.44128 7.6649 6.165 8.29301 6.165 9.09777C6.165 9.84366 6.43507 10.4423 6.97501 10.8938C7.51494 11.3452 8.51497 11.8065 9.97511 12.2775C11.4477 12.7487 12.6561 13.1951 13.6012 13.6172C14.546 14.0294 15.3436 14.5006 15.9939 15.0305C16.6443 15.5507 17.1412 16.1492 17.4847 16.8265C17.8284 17.4939 18 18.274 18 19.1672C18 20.8356 17.3496 22.1899 16.0492 23.2302C14.7484 24.2705 12.9568 24.884 10.6745 25.0704V26.8297C10.6745 27.4759 10.0195 28 9.21122 28C8.40321 28 7.74798 27.4759 7.74798 26.8297V25.0851C5.23259 24.8693 3.28149 24.1577 1.89492 22.9505C0.948499 22.1124 0.327945 21.0859 0.0332781 19.8709C-0.199901 18.9093 0.826211 18.1071 2.05082 18.1071H2.9354C4.16001 18.1071 5.06962 18.9315 5.49203 19.8508C5.6601 20.2167 5.89049 20.5334 6.1834 20.8012C6.88299 21.4195 7.88302 21.7286 9.18373 21.7286C10.2634 21.7286 11.1164 21.503 11.7421 21.0515C12.3679 20.5902 12.6807 19.972 12.6807 19.1966Z" fill="black"/>
</svg>
