<svg viewBox="0 0 12 12" fill="none"
    xmlns="http://www.w3.org/2000/svg">
    <g clip-path="url(#clip0_1138_9970)">
        <path d="M5.25617 8.065L4.90251 9.47964L4.43097 9.95118H8.20332L7.73178 9.47964L7.37812 8.065H5.25617ZM2.07324 6.17883H10.561H2.07324ZM3.01633 8.065H9.61796C9.86808 8.065 10.108 7.96564 10.2848 7.78878C10.4617 7.61192 10.561 7.37204 10.561 7.12192V2.40647C10.561 2.15635 10.4617 1.91647 10.2848 1.7396C10.108 1.56274 9.86808 1.46338 9.61796 1.46338H3.01633C2.76621 1.46338 2.52633 1.56274 2.34947 1.7396C2.1726 1.91647 2.07324 2.15635 2.07324 2.40647V7.12192C2.07324 7.37204 2.1726 7.61192 2.34947 7.78878C2.52633 7.96564 2.76621 8.065 3.01633 8.065Z" stroke="black" stroke-width="0.943089" stroke-linecap="round" stroke-linejoin="round"/>
    </g>
    <defs>
        <clipPath id="clip0_1138_9970">
            <rect width="11.3171" height="11.3171" fill="white" transform="translate(0.658447 0.0488281)"/>
        </clipPath>
    </defs>
</svg>
