<svg viewBox="0 0 12 12" fill="none"
    xmlns="http://www.w3.org/2000/svg">
    <path d="M8.61796 5.77236C8.61796 5.32015 8.29731 4.94197 7.87245 4.85096C8.0422 4.56756 8.14641 4.23984 8.14641 3.88618C8.14641 2.84595 7.30046 2 6.26023 2C5.5449 2 4.93001 2.40411 4.60983 2.99213C4.28965 2.40411 3.67475 2 2.95942 2C1.91919 2 1.07324 2.84595 1.07324 3.88618C1.07324 4.31151 1.22036 4.70054 1.45849 5.016C1.33947 5.10303 1.24258 5.21684 1.17566 5.34823C1.10874 5.47962 1.07365 5.62491 1.07324 5.77236V9.54471C1.07324 10.0648 1.49622 10.4878 2.01633 10.4878H7.67487C8.19498 10.4878 8.61796 10.0648 8.61796 9.54471V8.30078L10.5041 9.24387V5.94306L8.61796 6.88615V5.77236ZM6.26023 2.94309C6.78035 2.94309 7.20332 3.36606 7.20332 3.88618C7.20332 4.40629 6.78035 4.82927 6.26023 4.82927C5.74012 4.82927 5.31714 4.40629 5.31714 3.88618C5.31714 3.36606 5.74012 2.94309 6.26023 2.94309ZM2.95942 2.94309C3.47953 2.94309 3.90251 3.36606 3.90251 3.88618C3.90251 4.40629 3.47953 4.82927 2.95942 4.82927C2.43931 4.82927 2.01633 4.40629 2.01633 3.88618C2.01633 3.36606 2.43931 2.94309 2.95942 2.94309ZM2.01633 9.54471V5.77236H7.67487L7.67581 9.54471H2.01633Z" fill="black"/>
</svg>
