<svg viewBox="0 0 11 10" fill="none"
    xmlns="http://www.w3.org/2000/svg">
    <path d="M6.6139 9.73394H5.64134C5.46943 9.73377 5.30461 9.66541 5.18306 9.54385C5.0615 9.42229 4.99313 9.25748 4.99296 9.08557V7.46463H5.64134V9.08557H6.6139V7.46463H7.26227V6.16789C7.26219 6.08193 7.228 5.99952 7.16723 5.93875C7.10645 5.87797 7.02404 5.84378 6.93809 5.8437H4.11117L3.4628 3.89858H1.42691C1.34095 3.89866 1.25854 3.93285 1.19777 3.99362C1.13699 4.0544 1.10281 4.13681 1.10272 4.22276V6.16789H1.75109V9.08557H3.04784V6.81626H3.69622V9.08557C3.69604 9.25748 3.62768 9.42229 3.50612 9.54385C3.38457 9.66541 3.21975 9.73377 3.04784 9.73394H1.75109C1.57919 9.73377 1.41437 9.66541 1.29281 9.54385C1.17126 9.42229 1.10289 9.25748 1.10272 9.08557V6.81626C0.930813 6.81609 0.765996 6.74772 0.64444 6.62617C0.522883 6.50461 0.454517 6.33979 0.454346 6.16789V4.22276C0.454603 3.9649 0.557152 3.71768 0.739487 3.53534C0.921821 3.35301 1.16905 3.25046 1.42691 3.2502H3.4628C3.59886 3.25012 3.7315 3.29288 3.84189 3.37243C3.95228 3.45198 4.03481 3.56427 4.07778 3.69337L4.578 5.19532H6.93809C7.19595 5.19558 7.44317 5.29813 7.62551 5.48047C7.80784 5.6628 7.91039 5.91003 7.91065 6.16789V7.46463C7.91047 7.63654 7.84211 7.80136 7.72055 7.92291C7.599 8.04447 7.43418 8.11284 7.26227 8.11301V9.08557C7.2621 9.25748 7.19374 9.42229 7.07218 9.54385C6.95062 9.66541 6.78581 9.73377 6.6139 9.73394ZM9.20739 9.73394H8.55902V6.16789H9.53158V4.22276C9.5315 4.13681 9.49731 4.0544 9.43653 3.99362C9.37576 3.93285 9.29335 3.89866 9.20739 3.89858H7.91065V3.2502H9.20739C9.46525 3.25046 9.71248 3.35301 9.89481 3.53534C10.0771 3.71768 10.1797 3.9649 10.18 4.22276V6.16789C10.1798 6.33979 10.1114 6.50461 9.98986 6.62617C9.86831 6.74772 9.70349 6.81609 9.53158 6.81626H9.20739V9.73394ZM2.39947 2.92602C2.143 2.92602 1.89228 2.84996 1.67903 2.70747C1.46578 2.56499 1.29958 2.36246 1.20143 2.12551C1.10328 1.88856 1.0776 1.62783 1.12764 1.37629C1.17767 1.12474 1.30117 0.893682 1.48253 0.712329C1.66388 0.530975 1.89494 0.407472 2.14648 0.357437C2.39803 0.307401 2.65876 0.333081 2.89571 0.431229C3.13266 0.529377 3.33519 0.695584 3.47767 0.908833C3.62016 1.12208 3.69622 1.3728 3.69622 1.62927C3.69579 1.97306 3.55903 2.30264 3.31593 2.54573C3.07284 2.78883 2.74325 2.92559 2.39947 2.92602ZM2.39947 0.980894C2.27123 0.980894 2.14587 1.01892 2.03925 1.09016C1.93263 1.16141 1.84952 1.26267 1.80045 1.38115C1.75137 1.49962 1.73853 1.62999 1.76355 1.75576C1.78857 1.88153 1.85032 1.99706 1.941 2.08774C2.03167 2.17841 2.1472 2.24017 2.27298 2.26518C2.39875 2.2902 2.52911 2.27736 2.64759 2.22829C2.76606 2.17921 2.86733 2.09611 2.93857 1.98949C3.00981 1.88286 3.04784 1.7575 3.04784 1.62927C3.04767 1.45736 2.9793 1.29254 2.85775 1.17099C2.73619 1.04943 2.57137 0.981066 2.39947 0.980894ZM8.23483 2.92602C7.97836 2.92602 7.72765 2.84996 7.5144 2.70747C7.30115 2.56499 7.13494 2.36246 7.03679 2.12551C6.93865 1.88856 6.91297 1.62783 6.963 1.37629C7.01304 1.12474 7.13654 0.893682 7.31789 0.712329C7.49925 0.530975 7.73031 0.407472 7.98185 0.357437C8.23339 0.307401 8.49413 0.333081 8.73108 0.431229C8.96803 0.529377 9.17055 0.695584 9.31304 0.908833C9.45553 1.12208 9.53158 1.3728 9.53158 1.62927C9.53115 1.97306 9.39439 2.30264 9.1513 2.54573C8.9082 2.78883 8.57862 2.92559 8.23483 2.92602ZM8.23483 0.980894C8.1066 0.980894 7.98124 1.01892 7.87462 1.09016C7.76799 1.16141 7.68489 1.26267 7.63581 1.38115C7.58674 1.49962 7.5739 1.62999 7.59892 1.75576C7.62394 1.88153 7.68569 1.99706 7.77636 2.08774C7.86704 2.17841 7.98257 2.24017 8.10834 2.26518C8.23411 2.2902 8.36448 2.27736 8.48295 2.22829C8.60143 2.17921 8.70269 2.09611 8.77394 1.98949C8.84518 1.88286 8.88321 1.7575 8.88321 1.62927C8.88304 1.45736 8.81467 1.29254 8.69311 1.17099C8.57156 1.04943 8.40674 0.981066 8.23483 0.980894Z" fill="black"/>
</svg>
