<svg width="12" height="13" viewBox="0 0 12 13" fill="none"
    xmlns="http://www.w3.org/2000/svg">
    <path d="M11.1114 0H0.653614C0.480265 0 0.314016 0.0688627 0.191439 0.191439C0.0688627 0.314016 0 0.480265 0 0.653614V2.34648C0 2.68832 0.13922 3.02427 0.381057 3.26611L3.92169 6.80674V11.7651C3.92181 11.8764 3.95036 11.9859 4.00463 12.0831C4.0589 12.1804 4.13708 12.2622 4.23179 12.3207C4.3265 12.3793 4.43459 12.4128 4.54583 12.4179C4.65707 12.423 4.76777 12.3997 4.86747 12.35L7.48192 11.0428C7.7035 10.9317 7.84337 10.7056 7.84337 10.4578V6.80674L11.384 3.26611C11.6258 3.02427 11.7651 2.68832 11.7651 2.34648V0.653614C11.7651 0.480265 11.6962 0.314016 11.5736 0.191439C11.451 0.0688627 11.2848 0 11.1114 0ZM6.72765 6.07404C6.66684 6.13463 6.61861 6.20666 6.58574 6.28596C6.55288 6.36527 6.53602 6.4503 6.53614 6.53614V10.0539L5.22892 10.7075V6.53614C5.22904 6.4503 5.21218 6.36527 5.17932 6.28596C5.14645 6.20666 5.09822 6.13463 5.03741 6.07404L1.30723 2.34648V1.30723H10.4585L10.4598 2.3419L6.72765 6.07404Z" fill="currentColor"/>
</svg>
