<svg viewBox="0 0 13 13" fill="none"
    xmlns="http://www.w3.org/2000/svg">
    <path d="M10.7895 4.11346H9.09024C9.24681 3.8671 9.33891 3.57469 9.33891 3.26155C9.33891 2.38546 8.6263 1.67285 7.75021 1.67285C7.2736 1.67285 6.84419 1.88468 6.55293 2.21854C6.26167 1.88468 5.83226 1.67285 5.35565 1.67285C4.47956 1.67285 3.76695 2.38546 3.76695 3.26155C3.76695 3.57469 3.85789 3.8671 4.01561 4.11346H2.31639C2.11262 4.11346 1.948 4.27809 1.948 4.48186V6.78432C1.948 6.83498 1.98944 6.87642 2.0401 6.87642H2.50059V10.8367C2.50059 11.0404 2.66522 11.2051 2.86898 11.2051H10.2369C10.4406 11.2051 10.6053 11.0404 10.6053 10.8367V6.87642H11.0658C11.1164 6.87642 11.1579 6.83498 11.1579 6.78432V4.48186C11.1579 4.27809 10.9932 4.11346 10.7895 4.11346ZM6.94435 3.26155C6.94435 2.81718 7.30583 2.45569 7.75021 2.45569C8.19458 2.45569 8.55607 2.81718 8.55607 3.26155C8.55607 3.70593 8.19458 4.06741 7.75021 4.06741H6.94435V3.26155ZM5.35565 2.45569C5.80002 2.45569 6.16151 2.81718 6.16151 3.26155V4.06741H5.35565C4.91127 4.06741 4.54978 3.70593 4.54978 3.26155C4.54978 2.81718 4.91127 2.45569 5.35565 2.45569ZM2.73084 6.09358V4.8963H6.16151V6.09358H2.73084ZM3.28343 6.87642H6.16151V10.4222H3.28343V6.87642ZM9.82243 10.4222H6.94435V6.87642H9.82243V10.4222ZM10.375 6.09358H6.94435V4.8963H10.375V6.09358Z" fill="black"/>
</svg>
