<svg viewBox="0 0 12 12" fill="none"
    xmlns="http://www.w3.org/2000/svg">
    <g clip-path="url(#clip0_1138_9977)">
        <path d="M6.30008 3.78208C6.30008 3.78208 4.85008 3.92637 4.09089 3.29403C3.33171 2.66121 3.50476 1.45265 3.50476 1.45265C3.50476 1.45265 4.95476 1.30835 5.71442 1.94069C6.47361 2.57351 6.30008 3.78208 6.30008 3.78208V3.78208Z" stroke="black" stroke-width="0.943089" stroke-linecap="round" stroke-linejoin="round"/>
        <path d="M6.33401 3.78208C6.33401 3.78208 7.78401 3.92637 8.5432 3.29403C9.30239 2.66121 9.12933 1.45265 9.12933 1.45265C9.12933 1.45265 7.67933 1.30835 6.92014 1.94069C6.16095 2.57351 6.33401 3.78208 6.33401 3.78208V3.78208ZM2.54468 5.6824C2.54468 5.55734 2.59436 5.4374 2.68279 5.34897C2.77122 5.26054 2.89116 5.21086 3.01622 5.21086H9.61785C9.74291 5.21086 9.86285 5.26054 9.95128 5.34897C10.0397 5.4374 10.0894 5.55734 10.0894 5.6824V6.62549C10.0894 6.75055 10.0397 6.87049 9.95128 6.95892C9.86285 7.04736 9.74291 7.09704 9.61785 7.09704H3.01622C2.89116 7.09704 2.77122 7.04736 2.68279 6.95892C2.59436 6.87049 2.54468 6.75055 2.54468 6.62549V5.6824ZM3.01622 7.09704H9.61785L8.67476 10.8694H3.95931L3.01622 7.09704Z" stroke="black" stroke-width="0.943089" stroke-linecap="round" stroke-linejoin="round"/>
    </g>
    <defs>
        <clipPath id="clip0_1138_9977">
            <rect width="11.3171" height="11.3171" fill="white" transform="translate(0.658447 0.496094)"/>
        </clipPath>
    </defs>
</svg>
