<svg viewBox="0 0 29 29" fill="none"
    xmlns="http://www.w3.org/2000/svg">
    <path d="M23.754 11.7225L15.2957 4.32143C14.8401 3.9228 14.1599 3.9228 13.7043 4.32143L5.24598 11.7225C4.98376 11.9519 4.83334 12.2834 4.83334 12.6318V22.9585C4.83334 23.6259 5.37433 24.1669 6.04168 24.1669H10.875C11.5424 24.1669 12.0833 23.6259 12.0833 22.9585V18.1252C12.0833 17.4579 12.6243 16.9169 13.2917 16.9169H15.7083C16.3757 16.9169 16.9167 17.4579 16.9167 18.1252V22.9585C16.9167 23.6259 17.4577 24.1669 18.125 24.1669H22.9583C23.6257 24.1669 24.1667 23.6259 24.1667 22.9585V12.6318C24.1667 12.2834 24.0163 11.9519 23.754 11.7225Z" fill="currentColor" stroke="currentColor" stroke-width="2.41667" stroke-linecap="round" stroke-linejoin="round"/>
</svg>
