<svg viewBox="0 0 24 24" fill="none"
    xmlns="http://www.w3.org/2000/svg">
    <path d="M21.2308 12.8988V10.7586H19.3846V13.2414C19.3847 13.4609 19.482 13.6713 19.6551 13.8265L22.1538 16.0668V17.3793H1.84615V16.0668L4.34492 13.8265C4.51805 13.6713 4.61533 13.4609 4.61538 13.2414V9.93104C4.61281 8.76811 4.95259 7.62516 5.60039 6.61764C6.24819 5.61012 7.18108 4.77371 8.30483 4.19289C9.42858 3.61206 10.7034 3.3074 12.0005 3.30967C13.2976 3.31193 14.5711 3.62105 15.6923 4.20579V2.35614C14.8136 2.00733 13.8791 1.78501 12.9231 1.69738V0H11.0769V1.69655C8.80114 1.90422 6.69209 2.86106 5.15757 4.38205C3.62306 5.90305 2.77209 7.88014 2.76923 9.93104V12.8988L0.270462 15.139C0.097339 15.2942 5.22807e-05 15.5047 0 15.7241V18.2069C0 18.4264 0.0972524 18.6369 0.270363 18.7921C0.443473 18.9473 0.678262 19.0345 0.923077 19.0345H7.38462V19.8621C7.38462 20.9595 7.87088 22.012 8.73643 22.788C9.60198 23.564 10.7759 24 12 24C13.2241 24 14.398 23.564 15.2636 22.788C16.1291 22.012 16.6154 20.9595 16.6154 19.8621V19.0345H23.0769C23.3217 19.0345 23.5565 18.9473 23.7296 18.7921C23.9027 18.6369 24 18.4264 24 18.2069V15.7241C23.9999 15.5047 23.9027 15.2942 23.7295 15.139L21.2308 12.8988ZM14.7692 19.8621C14.7692 20.5205 14.4775 21.152 13.9581 21.6176C13.4388 22.0833 12.7344 22.3448 12 22.3448C11.2656 22.3448 10.5612 22.0833 10.0419 21.6176C9.52253 21.152 9.23077 20.5205 9.23077 19.8621V19.0345H14.7692V19.8621Z" fill="black"/>
</svg>
