<svg width="50" height="50" viewBox="0 0 50 50" fill="none"
    xmlns="http://www.w3.org/2000/svg">
    <circle cx="25" cy="25" r="25" fill="#EDA097"/>
    <path d="M36.971 13.5303C36.9764 13.4737 36.9764 13.4162 36.971 13.3596C36.971 13.3596 36.971 13.3291 36.971 13.3109C36.9587 13.2699 36.9434 13.2311 36.9253 13.195L36.8797 13.128L36.8465 13.0792H36.8216L36.7635 13.0366L36.693 13H36.6308H36.5063L13.3246 20.3751C13.2418 20.4023 13.1666 20.466 13.1092 20.5579C13.0518 20.6498 13.015 20.7653 13.0037 20.8888C12.9924 21.0124 13.0072 21.1381 13.046 21.249C13.0848 21.3598 13.1459 21.4505 13.2209 21.5088L19.6759 26.452L20.7172 36.0396C20.7238 36.0989 20.7364 36.1564 20.7545 36.2103V36.2469C20.7755 36.3013 20.8021 36.3506 20.8333 36.3932C20.8611 36.4273 20.8918 36.456 20.9246 36.4785H20.9495H20.9744C21.0156 36.4877 21.0576 36.4877 21.0989 36.4785C21.151 36.5134 21.2075 36.5321 21.2648 36.5333H21.3021L21.3602 36.4968L25.8904 32.4008L30.5491 36.8991C30.6013 36.9497 30.6607 36.9824 30.7227 36.9946C30.7848 37.0068 30.8479 36.9982 30.9074 36.9695C30.9668 36.9408 31.0211 36.8926 31.0661 36.8287C31.1111 36.7648 31.1457 36.6867 31.1672 36.6004L36.9751 13.7924C36.9906 13.7298 36.999 13.6639 37 13.5973C37 13.5973 36.971 13.5425 36.971 13.5303ZM22.4513 28.1038C22.4286 28.129 22.4077 28.1576 22.389 28.1891C22.3581 28.2454 22.3342 28.3094 22.3185 28.378L21.2565 33.2542L20.5098 26.391L32.1795 17.5531L22.4513 28.1038ZM33.5651 15.1333L20.0534 25.367L14.6272 21.2041L33.5651 15.1333ZM21.8622 34.5646L22.9491 29.5422L25.1104 31.6572L21.8622 34.5646ZM30.574 35.4301L26.1434 31.1635L23.4635 28.5792L35.6808 15.2613L30.574 35.4301Z" fill="#F24E1E"/>
</svg>
