<svg viewBox="0 0 33 33" fill="none"
    xmlns="http://www.w3.org/2000/svg">
    <path d="M10.5132 4.125H6.73026C5.29142 4.125 4.125 5.29142 4.125 6.73026C4.125 18.9605 14.0395 28.875 26.2697 28.875C27.7086 28.875 28.875 27.7086 28.875 26.2697V22.4868C28.875 21.3624 28.1904 20.3512 27.1463 19.9335L23.5223 18.4839C22.5844 18.1088 21.5164 18.278 20.7405 18.9246L19.8043 19.7048C18.7116 20.6153 17.1049 20.5424 16.0992 19.5367L13.4633 16.9008C12.4576 15.8951 12.3847 14.2884 13.2952 13.1957L14.0754 12.2595C14.722 11.4836 14.8912 10.4156 14.5161 9.47771L13.0665 5.85368C12.6488 4.80962 11.6376 4.125 10.5132 4.125Z" stroke="currentColor" stroke-width="2" stroke-linecap="round" stroke-linejoin="round"/>
</svg>
