<svg viewBox="0 0 15 15" fill="none"
    xmlns="http://www.w3.org/2000/svg">
    <path d="M6.13822 7.59647C6.13822 7.51134 6.15666 7.42721 6.19227 7.34987C6.22788 7.27254 6.27983 7.20385 6.34452 7.14851L8.00967 5.72149C8.06305 5.67583 8.13099 5.65074 8.20123 5.65074C8.27148 5.65074 8.33941 5.67583 8.3928 5.72149L10.0585 7.1491C10.123 7.20442 10.1748 7.27305 10.2103 7.35027C10.2458 7.42749 10.2642 7.51148 10.2642 7.59647V9.38834C10.2642 9.46651 10.2332 9.54147 10.1779 9.59674C10.1227 9.65201 10.0477 9.68306 9.96952 9.68306H8.93802C8.89894 9.68306 8.86146 9.66753 8.83382 9.6399C8.80619 9.61226 8.79066 9.57478 8.79066 9.5357V8.79891C8.79066 8.72075 8.75961 8.64579 8.70434 8.59052C8.64907 8.53525 8.57411 8.5042 8.49595 8.5042H7.90652C7.82835 8.5042 7.75339 8.53525 7.69812 8.59052C7.64285 8.64579 7.6118 8.72075 7.6118 8.79891V9.5357C7.6118 9.57478 7.59628 9.61226 7.56864 9.6399C7.54101 9.66753 7.50352 9.68306 7.46444 9.68306H6.43294C6.35478 9.68306 6.27981 9.65201 6.22454 9.59674C6.16927 9.54147 6.13822 9.46651 6.13822 9.38834V7.59647ZM4.36993 12.6503V11.0093C4.7395 11.2869 5.19867 11.4514 5.69615 11.4514H10.7063C11.2925 11.4514 11.8548 11.2185 12.2693 10.804C12.6838 10.3894 12.9167 9.82721 12.9167 9.24098V4.56857C13.0668 4.39842 13.1646 4.18857 13.1983 3.96422C13.2321 3.73986 13.2004 3.51053 13.1071 3.30374C13.0137 3.09694 12.8627 2.92148 12.6721 2.79841C12.4815 2.67533 12.2594 2.60987 12.0325 2.60989H4.21196C4.0822 2.38516 3.88192 2.20953 3.64217 2.11023C3.40242 2.01093 3.13661 1.99351 2.88595 2.06068C2.6353 2.12784 2.41381 2.27583 2.25583 2.48171C2.09785 2.68758 2.01222 2.93982 2.01221 3.19932V12.6503C2.01221 12.965 2.26743 13.2196 2.5816 13.2196H3.80054C3.95155 13.2196 4.09638 13.1597 4.20316 13.0529C4.30994 12.9461 4.36993 12.8013 4.36993 12.6503ZM3.19107 2.9046C3.25901 2.90459 3.32487 2.92805 3.3775 2.97101C3.43013 3.01398 3.4663 3.07381 3.47989 3.14038L3.5518 3.49403H12.0325C12.1107 3.49403 12.1857 3.52508 12.2409 3.58035C12.2962 3.63562 12.3272 3.71059 12.3272 3.78875C12.3272 3.86691 12.2962 3.94187 12.2409 3.99714C12.1857 4.05241 12.1107 4.08346 12.0325 4.08346H3.48578V12.3355H2.89635V3.19932C2.89635 3.12115 2.9274 3.04619 2.98267 2.99092C3.03794 2.93565 3.11291 2.9046 3.19107 2.9046ZM5.69615 10.5672C5.34441 10.5672 5.00709 10.4275 4.75837 10.1788C4.50966 9.93005 4.36993 9.59272 4.36993 9.24098V4.96761H12.0325V9.24098C12.0325 9.41515 11.9982 9.5876 11.9316 9.74851C11.8649 9.90941 11.7672 10.0556 11.6441 10.1788C11.5209 10.3019 11.3747 10.3996 11.2138 10.4663C11.0529 10.5329 10.8805 10.5672 10.7063 10.5672H5.69615Z" fill="black"/>
</svg>
