<svg viewBox="0 0 24 24" fill="none"
    xmlns="http://www.w3.org/2000/svg">
    <path d="M19.3819 23.992H19.381C14.4499 23.992 9.51789 24.0077 4.58587 23.992C2.20062 23.9699 0.00738465 21.8996 0 19.379V4.61303C0.034154 3.90326 0.962774 3.42607 1.5277 3.91525C1.68278 4.05001 1.78985 4.23645 1.82955 4.43859C1.84432 4.51519 1.84247 4.53458 1.84616 4.61303C1.84616 9.54639 1.80001 14.4798 1.84616 19.4122C1.86832 20.8401 3.10432 22.1322 4.59694 22.1461C8.2948 22.1581 11.9917 22.1461 15.6896 22.1461C15.6721 22.1239 15.6555 22.1009 15.6388 22.0769C15.073 21.2877 14.7693 20.337 14.7665 19.379V1.84407H0.923081C0.923081 1.84407 0.0332308 1.64102 0.000923014 0.96539C-0.022154 0.470669 0.409848 0.0230211 0.923081 -0.000976562H15.6896C16.1853 0.0211751 16.5887 0.414367 16.6127 0.921086C16.6127 7.08479 16.5555 13.2494 16.6127 19.4122C16.6348 20.8244 17.8505 22.1092 19.3256 22.1461C19.3985 22.1378 19.3764 22.1507 19.5425 22.1415C20.929 22.0584 22.1456 20.8234 22.1502 19.3762V11.073H19.381C19.381 11.073 18.9342 11.0241 18.7044 10.7777C18.2641 10.3023 18.5216 9.34611 19.2435 9.23719C19.3044 9.22796 19.3201 9.22888 19.381 9.22704H23.0733C23.0955 9.22796 23.1186 9.22888 23.1416 9.22981C23.353 9.25288 23.3863 9.27596 23.473 9.31842C23.7841 9.46794 23.9826 9.80114 23.9955 10.15C23.9955 13.2356 24.0056 16.322 23.9955 19.4076C23.9733 21.811 21.8678 23.9837 19.3829 23.992H19.3819ZM10.152 18.4551H6.46064C5.74249 18.4412 5.25972 17.4841 5.77664 16.9127C5.94833 16.7226 6.19941 16.6146 6.46064 16.6091H10.152C10.164 16.61 10.177 16.61 10.189 16.61C10.9948 16.658 11.4037 17.9234 10.5757 18.3517C10.4456 18.4191 10.3016 18.4523 10.152 18.4551ZM11.9982 14.764H4.61448C4.4031 14.7576 4.33294 14.7299 4.21386 14.6727C3.64802 14.3995 3.52802 13.4802 4.08094 13.0888C4.19356 13.0085 4.32371 12.9541 4.46033 12.931C4.5111 12.9227 4.56279 12.9199 4.61448 12.9181H11.9982C12.0148 12.919 12.0324 12.919 12.0499 12.9199C12.7293 12.9771 13.1973 13.8835 12.6859 14.4558C12.5124 14.6496 12.3361 14.7548 11.9982 14.764ZM11.9982 11.073H4.61448C3.90832 11.0527 3.4034 10.1196 3.92679 9.53439C4.0994 9.34057 4.27663 9.23627 4.61448 9.22704H11.9982C12.0148 9.22704 12.0324 9.22796 12.0499 9.22796C12.7321 9.28611 13.1825 10.2091 12.6859 10.7647C12.5124 10.9586 12.3361 11.0629 11.9982 11.073ZM11.9982 7.38107H4.61448C3.91017 7.36168 3.40709 6.42393 3.92679 5.84337C4.0994 5.64955 4.27663 5.54525 4.61448 5.53602H11.9982C12.0148 5.53602 12.0324 5.53694 12.0499 5.53694C12.2613 5.55448 12.3287 5.58678 12.4441 5.65047C12.9757 5.9449 13.0736 6.82728 12.5317 7.21124C12.4191 7.29061 12.289 7.34507 12.1524 7.36814C12.1016 7.37645 12.0499 7.38014 11.9982 7.38107Z" fill="currentColor"/>
</svg>
