<svg viewBox="0 0 29 29" fill="none"
    xmlns="http://www.w3.org/2000/svg">
    <path d="M8.45837 24.1665C8.45837 22.1645 11.1633 20.5415 14.5 20.5415C17.8368 20.5415 20.5417 22.1645 20.5417 24.1665" stroke="currentColor" stroke-width="2" stroke-linecap="round" stroke-linejoin="round"/>
    <path d="M21.75 17.218C23.8838 17.7774 25.375 19.0549 25.375 20.5414" stroke="currentColor" stroke-width="2" stroke-linecap="round" stroke-linejoin="round"/>
    <path d="M7.25005 17.218C5.11624 17.7774 3.62505 19.0549 3.62505 20.5414" stroke="currentColor" stroke-width="2" stroke-linecap="round" stroke-linejoin="round"/>
    <path d="M14.5 16.9167C16.5021 16.9167 18.125 15.2938 18.125 13.2917C18.125 11.2897 16.5021 9.66675 14.5 9.66675C12.498 9.66675 10.875 11.2897 10.875 13.2917C10.875 15.2938 12.498 16.9167 14.5 16.9167Z" stroke="currentColor" stroke-width="2" stroke-linecap="round" stroke-linejoin="round"/>
    <path d="M21.75 12.3687C22.4916 11.7049 22.9583 10.7404 22.9583 9.66675C22.9583 7.66472 21.3354 6.04175 19.3333 6.04175C18.4049 6.04175 17.558 6.39078 16.9167 6.96479" stroke="currentColor" stroke-width="2" stroke-linecap="round" stroke-linejoin="round"/>
    <path d="M7.25004 12.3687C6.50842 11.7049 6.0417 10.7404 6.0417 9.66675C6.0417 7.66472 7.66467 6.04175 9.6667 6.04175C10.5951 6.04175 11.442 6.39078 12.0834 6.96479" stroke="currentColor" stroke-width="2" stroke-linecap="round" stroke-linejoin="round"/>
</svg>
