<svg viewBox="0 0 16 16" fill="none"
    xmlns="http://www.w3.org/2000/svg">
    <path d="M13.4241 7.01511L12.5909 4.51485C12.47 4.15091 12.2375 3.83432 11.9264 3.61006C11.6154 3.38581 11.2415 3.26529 10.8581 3.26563H5.30448C4.92099 3.26529 4.54716 3.38581 4.23608 3.61006C3.92501 3.83432 3.69252 4.15091 3.57165 4.51485L2.73843 7.01511C2.5171 7.10798 2.32808 7.26408 2.19503 7.46386C2.06199 7.66364 1.99084 7.89823 1.99048 8.13825V11.1836C1.99048 11.6423 2.24812 12.0376 2.62331 12.2453C2.61539 12.2855 2.59956 12.322 2.59956 12.364V13.62C2.59956 13.7815 2.66373 13.9364 2.77795 14.0506C2.89218 14.1649 3.0471 14.229 3.20864 14.229H3.81771C3.97925 14.229 4.13417 14.1649 4.2484 14.0506C4.36262 13.9364 4.42679 13.7815 4.42679 13.62V12.4018H11.7357V13.62C11.7357 13.7815 11.7999 13.9364 11.9141 14.0506C12.0284 14.1649 12.1833 14.229 12.3448 14.229H12.9539C13.1154 14.229 13.2704 14.1649 13.3846 14.0506C13.4988 13.9364 13.563 13.7815 13.563 13.62V12.364C13.563 12.322 13.5471 12.2849 13.5392 12.2453C13.7301 12.1412 13.8895 11.9878 14.0009 11.801C14.1122 11.6143 14.1713 11.4011 14.1721 11.1836V8.13825C14.1721 7.63333 13.8626 7.19966 13.4241 7.01511ZM3.20864 11.1836V8.13825H12.9539L12.9551 11.1836H3.20864ZM5.30448 4.48378H10.8574C11.12 4.48378 11.3526 4.65067 11.4355 4.90039L12.1091 6.9201H4.05343L4.72646 4.90039C4.76687 4.77906 4.84445 4.67353 4.94819 4.59875C5.05194 4.52398 5.17659 4.48375 5.30448 4.48378Z" fill="white"/>
    <path d="M4.73125 10.5743C5.23582 10.5743 5.64486 10.1653 5.64486 9.66069C5.64486 9.15611 5.23582 8.74707 4.73125 8.74707C4.22667 8.74707 3.81763 9.15611 3.81763 9.66069C3.81763 10.1653 4.22667 10.5743 4.73125 10.5743Z" fill="white"/>
    <path d="M11.4312 10.5743C11.9358 10.5743 12.3448 10.1653 12.3448 9.66069C12.3448 9.15611 11.9358 8.74707 11.4312 8.74707C10.9266 8.74707 10.5176 9.15611 10.5176 9.66069C10.5176 10.1653 10.9266 10.5743 11.4312 10.5743Z" fill="white"/>
</svg>
