<svg viewBox="0 0 28 28" fill="none"
    xmlns="http://www.w3.org/2000/svg">
    <path d="M23.3333 5.83325H4.66667C4.02233 5.83325 3.5 6.35559 3.5 6.99992V20.9999C3.5 21.6443 4.02234 22.1666 4.66667 22.1666H23.3333C23.9777 22.1666 24.5 21.6443 24.5 20.9999V6.99992C24.5 6.35559 23.9777 5.83325 23.3333 5.83325Z" stroke="currentColor" stroke-width="2.33333" stroke-linecap="round" stroke-linejoin="round"/>
    <path d="M19.8333 15.75C19.8333 16.7165 19.0498 17.5 18.0833 17.5C17.1168 17.5 16.3333 16.7165 16.3333 15.75C16.3333 14.7835 17.1168 14 18.0833 14C19.0498 14 19.8333 14.7835 19.8333 15.75Z" stroke="currentColor" stroke-width="2.33333" stroke-linecap="round" stroke-linejoin="round"/>
    <path d="M13.4167 17.5C12.4502 17.5 11.6667 16.7165 11.6667 15.75C11.6667 14.7835 12.4502 14 13.4167 14" stroke="currentColor" stroke-width="2.33333" stroke-linecap="round" stroke-linejoin="round"/>
</svg>
